<svg width="32" height="32" viewBox="0 0 32 32" fill="none" xmlns="http://www.w3.org/2000/svg">
<path fill-rule="evenodd" clip-rule="evenodd" d="M18.5046 6.92437V6.34776C18.5046 6.15008 18.3398 5.99101 18.1423 6.00039C14.2657 6.18452 11.1591 9.30829 11.0028 13.1916C11.0112 13.435 11.2081 13.4987 11.324 13.4987H11.9097C12.095 13.4987 12.247 13.3532 12.2566 13.1681C12.4229 9.97341 14.9864 7.41308 18.1827 7.25109C18.4264 7.21978 18.5046 7.08656 18.5046 6.92437ZM13.2327 13.4987H13.7932C13.9751 13.4987 14.1235 13.3569 14.1367 13.1754C14.2952 11.0049 16.0357 9.27364 18.2104 9.12937C18.3077 9.12295 18.5046 9.05014 18.5046 8.79817V8.22751C18.5046 8.02586 18.3336 7.86749 18.1324 7.88063C15.3191 8.0642 13.0694 10.3136 12.8858 13.1265C12.8727 13.3277 13.031 13.4987 13.2327 13.4987ZM20.6818 18.5013C20.7977 18.5013 20.9946 18.565 21.003 18.8084C20.8467 22.6917 17.7401 25.8154 13.8634 25.9996C13.6659 26.009 13.5011 25.8499 13.5011 25.6522V25.0756C13.5011 24.9134 13.5794 24.7802 13.8231 24.7489C17.0194 24.5869 19.5828 22.0266 19.7492 18.8319C19.7588 18.6468 19.9108 18.5013 20.0961 18.5013H20.6818ZM18.7731 18.5013C18.9748 18.5013 19.1332 18.6723 19.12 18.8735C18.9364 21.6864 16.6867 23.9358 13.8734 24.1194C13.6722 24.1325 13.5011 23.9741 13.5011 23.7725V23.2018C13.5011 22.9498 13.6981 22.8771 13.7954 22.8706C15.97 22.7264 17.7106 20.9951 17.869 18.8246C17.8823 18.6431 18.0306 18.5013 18.2126 18.5013H18.7731ZM16.89 18.5013C17.0941 18.5013 17.2566 18.6765 17.2363 18.8796C17.0591 20.6505 15.6507 22.0587 13.8795 22.2359C13.6764 22.2562 13.5011 22.0938 13.5011 21.8897V21.3164C13.5011 21.0818 13.7048 20.9975 13.8041 20.9855C14.9419 20.8482 15.8445 19.9476 15.9848 18.811C16.0065 18.635 16.153 18.5013 16.3303 18.5013H16.89ZM6.9245 13.4972C7.08672 13.4972 7.21995 13.5754 7.25127 13.8191C7.41332 17.0149 9.97398 19.578 13.1691 19.7443C13.3542 19.7539 13.4998 19.9058 13.4998 20.0912V20.6768C13.4998 20.7926 13.436 20.9896 13.1926 20.9979C9.3088 20.8416 6.18458 17.7355 6.00039 13.8594C5.99101 13.6619 6.1501 13.4972 6.34785 13.4972H6.9245ZM8.79861 13.4972C9.05061 13.4972 9.12339 13.6941 9.12986 13.7914C9.27411 15.9657 11.0057 17.7061 13.1764 17.8644C13.358 17.8777 13.4998 18.026 13.4998 18.2079V18.7683C13.4998 18.97 13.3288 19.1283 13.1275 19.1152C10.3142 18.9316 8.06449 16.6823 7.8809 13.8694C7.86776 13.6682 8.02615 13.4972 8.22783 13.4972H8.79861ZM18.8074 10.9862C22.6912 11.1424 25.8154 14.2486 25.9996 18.1247C26.009 18.3221 25.8499 18.4869 25.6522 18.4869H25.0755C24.9133 18.4869 24.78 18.4087 24.7487 18.165C24.5867 14.9691 22.026 12.4061 18.8309 12.2398C18.6458 12.2301 18.5002 12.0782 18.5002 11.8929V11.3073C18.5002 11.1914 18.5639 10.9945 18.8074 10.9862ZM18.8725 12.8688C21.6858 13.0524 23.9355 15.3018 24.1191 18.1147C24.1322 18.3159 23.9738 18.4869 23.7722 18.4869H23.2014C22.9494 18.4869 22.8766 18.29 22.8701 18.1927C22.7259 16.0184 20.9943 14.278 18.8236 14.1196C18.642 14.1064 18.5002 13.9581 18.5002 13.7761V13.2157C18.5002 13.0141 18.6712 12.8557 18.8725 12.8688ZM18.8786 14.7523C20.6498 14.9295 22.0581 16.3377 22.2354 18.1086C22.2557 18.3117 22.0932 18.4869 21.8891 18.4869H21.3157C21.0811 18.4869 20.9967 18.2832 20.9847 18.184C20.8474 17.0464 19.9467 16.1439 18.8099 16.0036C18.634 15.9819 18.5002 15.8354 18.5002 15.6582V15.0985C18.5002 14.8944 18.6755 14.732 18.8786 14.7523ZM10.6843 13.4972C10.9189 13.4972 11.0033 13.7008 11.0153 13.8001C11.1526 14.9377 12.0533 15.8402 13.1901 15.9805C13.366 16.0022 13.4998 16.1486 13.4998 16.3259V16.8855C13.4998 17.0896 13.3245 17.2521 13.1214 17.2318C11.3502 17.0545 9.94187 15.6464 9.7646 13.8755C9.7443 13.6724 9.9068 13.4972 10.1109 13.4972H10.6843ZM18.5046 10.1103V10.6836C18.5046 10.9182 18.301 11.0025 18.2016 11.0145C17.0639 11.1518 16.1613 12.0524 16.021 13.189C15.9992 13.365 15.8528 13.4987 15.6755 13.4987H15.1158C14.9117 13.4987 14.7492 13.3234 14.7695 13.1204C14.9468 11.3495 16.3551 9.9413 18.1263 9.76405C18.3294 9.74376 18.5046 9.90623 18.5046 10.1103Z" fill="#FF5C00"/>
</svg>
