<svg width="71" height="86" viewBox="0 0 71 86" fill="none" xmlns="http://www.w3.org/2000/svg">
<g filter="url(#filter0_d_203_3)">
<path d="M71 17.8962V53.7028L40 71.599L20.9308 60.5837H20.9165L9 53.7028V17.8962L40 0L71 17.8962Z" fill="url(#paint0_linear_203_3)"/>
<g style="mix-blend-mode:screen" opacity="0.4">
<g style="mix-blend-mode:screen" opacity="0.4">
<path d="M66.7083 20.371L13.2916 51.2137V20.371L40 4.94965L66.7083 20.371Z" fill="white"/>
</g>
</g>
<g style="mix-blend-mode:multiply" opacity="0.3">
<g style="mix-blend-mode:multiply" opacity="0.3">
<path d="M70.9998 25.9915V53.6941L39.9998 71.5903L20.9305 60.575C24.3066 62.0628 27.5826 63.7065 30.8872 65.3388L35.794 67.8422L39.9425 70.0167C42.26 68.5575 44.6061 67.1556 46.9522 65.725C49.4843 64.1657 52.0879 62.6908 54.6486 61.1759C57.2093 59.6609 59.8129 58.186 62.4165 56.7125C64.7483 55.3664 67.123 54.0646 69.4977 52.7785C69.5406 50.7758 69.5978 48.7573 69.6837 46.7559C69.7552 44.4513 69.8553 42.1481 69.9841 39.8321C70.2187 35.22 70.5334 30.5993 70.9998 25.9915Z" fill="black"/>
</g>
</g>
<g style="mix-blend-mode:multiply" opacity="0.3">
<g style="mix-blend-mode:multiply" opacity="0.3">
<path d="M40.0055 0C37.6308 1.84398 35.1702 3.54776 32.6954 5.24868C30.2205 6.94961 27.7172 8.56899 25.2138 10.1712C23.9549 10.9866 22.6672 11.7448 21.4084 12.5316C20.1495 13.3184 18.8763 14.1195 17.5745 14.8634C15.2856 16.2067 12.9967 17.5814 10.6792 18.8832C10.6506 21.0291 10.6365 23.1749 10.5506 25.3207C10.4934 27.7798 10.3931 30.2561 10.2644 32.731C10.2072 33.9612 10.1356 35.2058 10.0355 36.4347C9.93535 37.6635 9.89243 38.9109 9.77799 40.1541C9.56341 42.6132 9.33452 45.0895 9.00549 47.5643V17.8962L40.0055 0Z" fill="black"/>
</g>
</g>
</g>
<defs>
<filter id="filter0_d_203_3" x="0" y="0" width="71" height="85.599" filterUnits="userSpaceOnUse" color-interpolation-filters="sRGB">
<feFlood flood-opacity="0" result="BackgroundImageFix"/>
<feColorMatrix in="SourceAlpha" type="matrix" values="0 0 0 0 0 0 0 0 0 0 0 0 0 0 0 0 0 0 127 0" result="hardAlpha"/>
<feOffset dx="-5" dy="10"/>
<feGaussianBlur stdDeviation="2"/>
<feComposite in2="hardAlpha" operator="out"/>
<feColorMatrix type="matrix" values="0 0 0 0 0 0 0 0 0 0 0 0 0 0 0 0 0 0 0.25 0"/>
<feBlend mode="normal" in2="BackgroundImageFix" result="effect1_dropShadow_203_3"/>
<feBlend mode="normal" in="SourceGraphic" in2="effect1_dropShadow_203_3" result="shape"/>
</filter>
<linearGradient id="paint0_linear_203_3" x1="40" y1="2.50596" x2="40" y2="70.167" gradientUnits="userSpaceOnUse">
<stop stop-color="#8759F2"/>
<stop offset="0.238" stop-color="#8759F2"/>
<stop offset="0.44" stop-color="#8759F2"/>
<stop offset="0.629" stop-color="#8759F2"/>
<stop offset="0.81" stop-color="#8759F2"/>
<stop offset="0.845" stop-color="#8759F2"/>
<stop offset="0.915" stop-color="#8759F2"/>
<stop offset="1" stop-color="#8759F2"/>
</linearGradient>
</defs>
</svg>
