<svg width="187" height="179" viewBox="0 0 187 179" fill="none" xmlns="http://www.w3.org/2000/svg">
<g filter="url(#filter0_d_1_25)">
<path d="M171.566 27.3888V80.3529L125.712 106.824L97.5055 90.531H97.4843L79.8578 80.3529V27.3888L125.712 0.917355L171.566 27.3888Z" fill="url(#paint0_linear_1_25)"/>
<path d="M187 114.506V147.579L158.37 164.105L136.046 151.219H136.025L129.719 147.579V114.506L158.37 97.9796L187 114.506Z" fill="url(#paint1_linear_1_25)"/>
<path d="M116.96 109.49V127.053L62.9798 158.21L29.3139 138.766C29.2927 138.766 29.2927 138.744 29.2715 138.744L9 127.043V64.7153L62.9798 33.5674L73.179 39.4478V84.2039L76.5012 86.1295C76.5223 86.1295 76.5435 86.1506 76.5647 86.1697L116.96 109.49Z" fill="url(#paint2_linear_1_25)"/>
<g style="mix-blend-mode:screen" opacity="0.4">
<g style="mix-blend-mode:screen" opacity="0.4">
<path d="M165.218 31.0495L86.2059 76.671V31.0495L125.712 8.23872L165.218 31.0495Z" fill="white"/>
</g>
</g>
<g style="mix-blend-mode:screen" opacity="0.2">
<g style="mix-blend-mode:screen" opacity="0.2">
<path d="M180.398 118.018L136.067 143.61V118.166L158.37 105.301L180.398 118.018Z" fill="white"/>
</g>
</g>
<g style="mix-blend-mode:screen" opacity="0.2">
<g style="mix-blend-mode:screen" opacity="0.2">
<path d="M66.8225 43.1107V68.376L15.3481 98.1146V68.3972L62.9798 40.8888L66.8225 43.1107Z" fill="white"/>
</g>
</g>
<g style="mix-blend-mode:multiply" opacity="0.3">
<g style="mix-blend-mode:multiply" opacity="0.3">
<path d="M116.959 109.49V127.053L62.979 158.21L29.313 138.766C35.1533 141.557 40.9512 144.5 46.7067 147.462L55.3401 151.97C57.8794 153.303 60.3974 154.657 62.9155 156.032C62.9367 156.009 62.9578 156.009 62.979 155.988C67.0841 153.449 71.1892 150.909 75.3366 148.457C79.7802 145.789 84.245 143.103 88.731 140.499C93.217 137.894 97.6818 135.232 102.189 132.65L114.547 125.625L114.8 110.644L105.934 105.184L96.0524 98.961C89.5139 94.7946 82.9754 90.5837 76.5639 86.1591L116.959 109.49Z" fill="black"/>
</g>
</g>
<g style="mix-blend-mode:multiply" opacity="0.3">
<g style="mix-blend-mode:multiply" opacity="0.3">
<path d="M171.566 39.3632V80.34L125.712 106.811L97.5052 90.5181C102.499 92.7188 107.345 95.1501 112.233 97.5645L119.491 101.267L125.627 104.484C129.055 102.326 132.525 100.252 135.996 98.1358C139.741 95.8293 143.592 93.6477 147.38 91.4068C151.168 89.166 155.019 86.9843 158.87 84.8048C162.319 82.8137 165.832 80.8881 169.344 78.9858C169.408 76.0233 169.492 73.0376 169.619 70.0773C169.725 66.6684 169.873 63.2616 170.064 59.8357C170.411 53.0137 170.876 46.1789 171.566 39.3632Z" fill="black"/>
</g>
</g>
<g style="mix-blend-mode:multiply" opacity="0.3">
<g style="mix-blend-mode:multiply" opacity="0.3">
<path d="M187 117.299V147.579L158.37 164.105L136.046 151.219C140.088 152.806 143.981 154.625 147.875 156.466C149.821 157.416 151.768 158.328 153.694 159.323L158.264 161.651L164.316 157.886L171.426 153.675C173.796 152.236 176.208 150.924 178.599 149.57C180.631 148.406 182.683 147.278 184.757 146.185C184.82 144.132 184.863 142.077 185.011 140.006C185.138 137.486 185.244 134.97 185.455 132.43C185.794 127.392 186.281 122.335 187 117.299Z" fill="black"/>
</g>
</g>
<g style="mix-blend-mode:multiply" opacity="0.3">
<g style="mix-blend-mode:multiply" opacity="0.3">
<path d="M158.37 97.9796C156.275 99.8629 154.074 101.556 151.852 103.227C149.631 104.899 147.367 106.486 145.081 108.01C143.939 108.814 142.754 109.531 141.611 110.274C140.468 111.016 139.283 111.797 138.098 112.496C136.152 113.678 134.184 114.842 132.216 115.966C132.173 117.91 132.152 119.838 132.046 121.785C131.962 124.197 131.835 126.628 131.623 129.041C131.539 130.27 131.433 131.476 131.306 132.682C131.179 133.889 131.073 135.114 130.904 136.322C130.565 138.755 130.248 141.168 129.719 143.601V114.506L158.37 97.9796Z" fill="black"/>
</g>
</g>
<g style="mix-blend-mode:multiply" opacity="0.3">
<g style="mix-blend-mode:multiply" opacity="0.3">
<path d="M62.9798 33.5763C58.7689 36.6869 54.4522 39.5858 50.1355 42.4848C45.7977 45.3414 41.4175 48.1747 37.0162 50.9277C34.8155 52.3222 32.5937 53.6553 30.3719 55.0116L23.7063 59.0511C19.6436 61.4211 15.602 63.8566 11.4969 66.1821C11.4546 70.374 11.4757 74.5616 11.3488 78.7534L11.1795 85.7553L10.9044 92.7615C10.8198 95.1103 10.7351 97.4379 10.587 99.7634L10.185 106.77C9.86757 111.446 9.52901 116.122 9 120.799V64.7242L62.9798 33.5763Z" fill="black"/>
</g>
</g>
<g style="mix-blend-mode:multiply" opacity="0.3">
<g style="mix-blend-mode:multiply" opacity="0.3">
<path d="M125.72 0.917355C122.208 3.64491 118.568 6.1651 114.907 8.68105C111.247 11.197 107.544 13.5923 103.841 15.9623C101.979 17.1684 100.074 18.2899 98.212 19.4537C96.3499 20.6175 94.4666 21.8025 92.541 22.9029C89.1554 24.8898 85.7697 26.9233 82.3418 28.8489C82.2995 32.0229 82.2785 35.197 82.1515 38.371C82.0669 42.0084 81.9186 45.6713 81.7281 49.332C81.6435 51.1518 81.5377 52.9927 81.3896 54.8104C81.2414 56.6281 81.178 58.4732 81.0087 60.3121C80.6913 63.9495 80.3527 67.6123 79.866 71.2731V27.3888L125.72 0.917355Z" fill="black"/>
</g>
</g>
</g>
<defs>
<filter id="filter0_d_1_25" x="0" y="0.917355" width="187" height="177.188" filterUnits="userSpaceOnUse" color-interpolation-filters="sRGB">
<feFlood flood-opacity="0" result="BackgroundImageFix"/>
<feColorMatrix in="SourceAlpha" type="matrix" values="0 0 0 0 0 0 0 0 0 0 0 0 0 0 0 0 0 0 127 0" result="hardAlpha"/>
<feOffset dx="-5" dy="10"/>
<feGaussianBlur stdDeviation="2"/>
<feComposite in2="hardAlpha" operator="out"/>
<feColorMatrix type="matrix" values="0 0 0 0 0 0 0 0 0 0 0 0 0 0 0 0 0 0 0.25 0"/>
<feBlend mode="normal" in2="BackgroundImageFix" result="effect1_dropShadow_1_25"/>
<feBlend mode="normal" in="SourceGraphic" in2="effect1_dropShadow_1_25" result="shape"/>
</filter>
<linearGradient id="paint0_linear_1_25" x1="125.712" y1="4.6241" x2="125.712" y2="104.706" gradientUnits="userSpaceOnUse">
<stop stop-color="#1DF1FC"/>
<stop offset="0.238" stop-color="#04C6D0"/>
<stop offset="0.44" stop-color="#36E6F1"/>
<stop offset="0.629" stop-color="#05BBCC"/>
<stop offset="0.81" stop-color="#05A5BB"/>
<stop offset="0.983" stop-color="#65E1FC"/>
<stop offset="1" stop-color="#0098BA"/>
<stop offset="1" stop-color="#04A9CE"/>
</linearGradient>
<linearGradient id="paint1_linear_1_25" x1="158.359" y1="100.889" x2="158.359" y2="156.501" gradientUnits="userSpaceOnUse">
<stop stop-color="#4176B0"/>
<stop offset="0.247" stop-color="#2E4E73"/>
<stop offset="0.75" stop-color="#213E69"/>
<stop offset="1" stop-color="#18294B"/>
</linearGradient>
<linearGradient id="paint2_linear_1_25" x1="39.3366" y1="49.2723" x2="80.5053" y2="139.313" gradientUnits="userSpaceOnUse">
<stop stop-color="#60A049"/>
<stop offset="0.149" stop-color="#959B4A"/>
<stop offset="0.375" stop-color="#4E9696"/>
<stop offset="0.65" stop-color="#59548E"/>
<stop offset="0.96" stop-color="#83327B"/>
<stop offset="1" stop-color="#522C82"/>
</linearGradient>
</defs>
</svg>
