<svg width="277" height="84" viewBox="0 0 277 84" fill="none" xmlns="http://www.w3.org/2000/svg">
<path d="M56.6274 46.9234C56.6274 59.4149 44.0105 69.5413 28.7901 69.5413V69.5413V46.9234H56.6274V46.9234Z" fill="#8759F2"/>
<path d="M56.6274 21.6706C56.6274 9.83357 45.1396 0.237793 30.9686 0.237793H28.7901V21.3976C28.7901 23.3239 30.6596 24.8855 32.9657 24.8855H52.7786C54.9043 24.8855 56.6274 23.4461 56.6274 21.6706V21.6706Z" fill="#FFC300"/>
<path fill-rule="evenodd" clip-rule="evenodd" d="M28.7899 0.237793C13.0954 0.237793 0.372559 10.5805 0.372559 23.3389V34.8895V46.4401C0.372559 59.1985 13.0954 69.5412 28.7899 69.5412V34.8895V0.237793Z" fill="#FFC300"/>
<path fill-rule="evenodd" clip-rule="evenodd" d="M28.7899 11.8631C28.7899 5.49212 22.0475 0.0883851 15.1642 3.14758C6.34977 7.06501 0.372559 14.6651 0.372559 23.3987V34.9343V46.47C0.372559 59.2119 13.0954 69.5412 28.7899 69.5412V34.9343V11.8631Z" fill="#8759F2"/>
<path d="M15.7417 23.1456H28.7905V43.1537H15.7417V23.1456Z" fill="url(#paint0_linear_415_79)"/>
<path d="M42.283 67.3693C50.8378 63.9961 56.6274 57.5147 56.6274 50.073V46.6654C56.6274 44.7259 54.758 43.1537 52.4518 43.1537H28.7901V58.137C28.7901 64.6019 35.3229 70.1136 42.283 67.3693Z" fill="url(#paint1_linear_415_79)"/>
<path d="M54.0176 22.0113C54.0176 10.4479 41.8022 1.51928 28.0224 3.01058L25.2911 3.30617V3.30617C28.1421 8.3096 26.958 14.2603 22.3212 18.232L15.9892 23.6558C15.4528 24.1152 15.844 24.8855 16.6138 24.8855H50.5637C52.4712 24.8855 54.0176 23.5987 54.0176 22.0113V22.0113Z" fill="#FFC300"/>
<mask id="mask0_415_79" style="mask-type:alpha" maskUnits="userSpaceOnUse" x="28" y="43" width="29" height="25">
<path d="M42.1236 66.6587C50.7665 63.421 56.6274 57.1395 56.6274 49.9213V46.1077C56.6274 44.528 54.7561 43.2474 52.4478 43.2474H28.763V59.4554C28.763 64.7209 35.3741 69.1871 42.1236 66.6587Z" fill="#FF3E80"/>
</mask>
<g mask="url(#mask0_415_79)">
<path d="M33.4946 43.2474L18.248 43.2474L18.248 71.2654L33.4946 71.2654L33.4946 43.2474Z" fill="url(#paint2_linear_415_79)" fill-opacity="0.4"/>
<path d="M38.2261 43.054L15.6191 41.9542L15.6191 69.9722L28.5922 61.4596L29.7891 50.8652C29.9263 49.6514 30.2649 48.4588 30.7956 47.321L30.8328 47.2413C32.0094 44.7186 34.9485 43.054 38.2261 43.054V43.054Z" fill="white"/>
</g>
<path d="M99.5352 41.8496H108.295C108.119 44.7207 107.328 47.2695 105.922 49.4961C104.535 51.7227 102.592 53.4609 100.092 54.7109C97.6113 55.9609 94.623 56.5859 91.127 56.5859C88.3926 56.5859 85.9414 56.1172 83.7734 55.1797C81.6055 54.2227 79.75 52.8555 78.207 51.0781C76.6836 49.3008 75.5215 47.1523 74.7207 44.6328C73.9199 42.1133 73.5195 39.291 73.5195 36.166V33.207C73.5195 30.082 73.9297 27.2598 74.75 24.7402C75.5898 22.2012 76.7812 20.043 78.3242 18.2656C79.8867 16.4883 81.752 15.1211 83.9199 14.1641C86.0879 13.207 88.5098 12.7285 91.1855 12.7285C94.7402 12.7285 97.7383 13.373 100.18 14.6621C102.641 15.9512 104.545 17.7285 105.893 19.9941C107.26 22.2598 108.08 24.8379 108.354 27.7285H99.5645C99.4668 26.0098 99.125 24.5547 98.5391 23.3633C97.9531 22.1523 97.0645 21.2441 95.873 20.6387C94.7012 20.0137 93.1387 19.7012 91.1855 19.7012C89.7207 19.7012 88.4414 19.9746 87.3477 20.5215C86.2539 21.0684 85.3359 21.8984 84.5938 23.0117C83.8516 24.125 83.2949 25.5312 82.9238 27.2305C82.5723 28.9102 82.3965 30.8828 82.3965 33.1484V36.166C82.3965 38.373 82.5625 40.3164 82.8945 41.9961C83.2266 43.6562 83.7344 45.0625 84.418 46.2148C85.1211 47.3477 86.0195 48.207 87.1133 48.793C88.2266 49.3594 89.5645 49.6426 91.127 49.6426C92.9629 49.6426 94.4766 49.3496 95.668 48.7637C96.8594 48.1777 97.7676 47.3086 98.3926 46.1562C99.0371 45.0039 99.418 43.5684 99.5352 41.8496ZM130.648 48.8516V34.7305C130.648 33.7148 130.482 32.8457 130.15 32.123C129.818 31.3809 129.301 30.8047 128.598 30.3945C127.914 29.9844 127.025 29.7793 125.932 29.7793C124.994 29.7793 124.184 29.9453 123.5 30.2773C122.816 30.5898 122.289 31.0488 121.918 31.6543C121.547 32.2402 121.361 32.9336 121.361 33.7344H112.924C112.924 32.3867 113.236 31.1074 113.861 29.8965C114.486 28.6855 115.395 27.6211 116.586 26.7031C117.777 25.7656 119.193 25.0332 120.834 24.5059C122.494 23.9785 124.35 23.7148 126.4 23.7148C128.861 23.7148 131.049 24.125 132.963 24.9453C134.877 25.7656 136.381 26.9961 137.475 28.6367C138.588 30.2773 139.145 32.3281 139.145 34.7891V48.3535C139.145 50.0918 139.252 51.5176 139.467 52.6309C139.682 53.7246 139.994 54.6816 140.404 55.502V56H131.879C131.469 55.1406 131.156 54.0664 130.941 52.7773C130.746 51.4688 130.648 50.1602 130.648 48.8516ZM131.762 36.6934L131.82 41.4688H127.104C125.99 41.4688 125.023 41.5957 124.203 41.8496C123.383 42.1035 122.709 42.4648 122.182 42.9336C121.654 43.3828 121.264 43.9102 121.01 44.5156C120.775 45.1211 120.658 45.7852 120.658 46.5078C120.658 47.2305 120.824 47.8848 121.156 48.4707C121.488 49.0371 121.967 49.4863 122.592 49.8184C123.217 50.1309 123.949 50.2871 124.789 50.2871C126.059 50.2871 127.162 50.0332 128.1 49.5254C129.037 49.0176 129.76 48.3926 130.268 47.6504C130.795 46.9082 131.068 46.2051 131.088 45.541L133.314 49.1152C133.002 49.916 132.572 50.7461 132.025 51.6055C131.498 52.4648 130.824 53.2754 130.004 54.0371C129.184 54.7793 128.197 55.3945 127.045 55.8828C125.893 56.3516 124.525 56.5859 122.943 56.5859C120.932 56.5859 119.105 56.1855 117.465 55.3848C115.844 54.5645 114.555 53.4414 113.598 52.0156C112.66 50.5703 112.191 48.9297 112.191 47.0938C112.191 45.4336 112.504 43.959 113.129 42.6699C113.754 41.3809 114.672 40.2969 115.883 39.418C117.113 38.5195 118.646 37.8457 120.482 37.3965C122.318 36.9277 124.447 36.6934 126.869 36.6934H131.762ZM154.086 31.2148V56H145.648V24.3008H153.588L154.086 31.2148ZM163.637 24.0957L163.49 31.918C163.08 31.8594 162.582 31.8105 161.996 31.7715C161.43 31.7129 160.912 31.6836 160.443 31.6836C159.252 31.6836 158.217 31.8398 157.338 32.1523C156.479 32.4453 155.756 32.8848 155.17 33.4707C154.604 34.0566 154.174 34.7695 153.881 35.6094C153.607 36.4492 153.451 37.4062 153.412 38.4805L151.713 37.9531C151.713 35.9023 151.918 34.0176 152.328 32.2988C152.738 30.5605 153.334 29.0469 154.115 27.7578C154.916 26.4688 155.893 25.4727 157.045 24.7695C158.197 24.0664 159.516 23.7148 161 23.7148C161.469 23.7148 161.947 23.7539 162.436 23.832C162.924 23.8906 163.324 23.9785 163.637 24.0957ZM167.621 11H176.059V48.7344L175.209 56H167.621V11ZM196.127 39.8281V40.4434C196.127 42.8066 195.873 44.9746 195.365 46.9473C194.877 48.9199 194.115 50.6289 193.08 52.0742C192.045 53.5 190.756 54.6133 189.213 55.4141C187.689 56.1953 185.893 56.5859 183.822 56.5859C181.889 56.5859 180.209 56.1953 178.783 55.4141C177.377 54.6328 176.195 53.5293 175.238 52.1035C174.281 50.6777 173.51 49.0078 172.924 47.0938C172.338 45.1797 171.898 43.0898 171.605 40.8242V39.4766C171.898 37.2109 172.338 35.1211 172.924 33.207C173.51 31.293 174.281 29.623 175.238 28.1973C176.195 26.7715 177.377 25.668 178.783 24.8867C180.189 24.1055 181.85 23.7148 183.764 23.7148C185.854 23.7148 187.67 24.1152 189.213 24.916C190.775 25.6973 192.064 26.8105 193.08 28.2559C194.115 29.6816 194.877 31.3809 195.365 33.3535C195.873 35.3066 196.127 37.4648 196.127 39.8281ZM187.689 40.4434V39.8281C187.689 38.5391 187.592 37.3281 187.396 36.1953C187.221 35.043 186.908 34.0371 186.459 33.1777C186.01 32.2988 185.395 31.6055 184.613 31.0977C183.852 30.5898 182.865 30.3359 181.654 30.3359C180.502 30.3359 179.525 30.5312 178.725 30.9219C177.924 31.3125 177.26 31.8594 176.732 32.5625C176.225 33.2656 175.844 34.1055 175.59 35.082C175.336 36.0391 175.18 37.0938 175.121 38.2461V42.084C175.18 43.627 175.434 44.9941 175.883 46.1855C176.352 47.3574 177.055 48.2852 177.992 48.9688C178.949 49.6328 180.189 49.9648 181.713 49.9648C182.904 49.9648 183.891 49.7305 184.672 49.2617C185.453 48.793 186.059 48.1289 186.488 47.2695C186.938 46.4102 187.25 45.4043 187.426 44.252C187.602 43.0801 187.689 41.8105 187.689 40.4434ZM200.023 40.4727V39.8574C200.023 37.5332 200.355 35.3945 201.02 33.4414C201.684 31.4688 202.65 29.7598 203.92 28.3145C205.189 26.8691 206.752 25.7461 208.607 24.9453C210.463 24.125 212.592 23.7148 214.994 23.7148C217.396 23.7148 219.535 24.125 221.41 24.9453C223.285 25.7461 224.857 26.8691 226.127 28.3145C227.416 29.7598 228.393 31.4688 229.057 33.4414C229.721 35.3945 230.053 37.5332 230.053 39.8574V40.4727C230.053 42.7773 229.721 44.916 229.057 46.8887C228.393 48.8418 227.416 50.5508 226.127 52.0156C224.857 53.4609 223.295 54.584 221.439 55.3848C219.584 56.1855 217.455 56.5859 215.053 56.5859C212.65 56.5859 210.512 56.1855 208.637 55.3848C206.781 54.584 205.209 53.4609 203.92 52.0156C202.65 50.5508 201.684 48.8418 201.02 46.8887C200.355 44.916 200.023 42.7773 200.023 40.4727ZM208.461 39.8574V40.4727C208.461 41.8008 208.578 43.041 208.812 44.1934C209.047 45.3457 209.418 46.3613 209.926 47.2402C210.453 48.0996 211.137 48.7734 211.977 49.2617C212.816 49.75 213.842 49.9941 215.053 49.9941C216.225 49.9941 217.23 49.75 218.07 49.2617C218.91 48.7734 219.584 48.0996 220.092 47.2402C220.6 46.3613 220.971 45.3457 221.205 44.1934C221.459 43.041 221.586 41.8008 221.586 40.4727V39.8574C221.586 38.5684 221.459 37.3574 221.205 36.2246C220.971 35.0723 220.59 34.0566 220.062 33.1777C219.555 32.2793 218.881 31.5762 218.041 31.0684C217.201 30.5605 216.186 30.3066 214.994 30.3066C213.803 30.3066 212.787 30.5605 211.947 31.0684C211.127 31.5762 210.453 32.2793 209.926 33.1777C209.418 34.0566 209.047 35.0723 208.812 36.2246C208.578 37.3574 208.461 38.5684 208.461 39.8574ZM243.5 31.0684V56H235.062V24.3008H242.973L243.5 31.0684ZM242.27 39.0371H239.984C239.984 36.6934 240.287 34.584 240.893 32.709C241.498 30.8145 242.348 29.2031 243.441 27.875C244.535 26.5273 245.834 25.502 247.338 24.7988C248.861 24.0762 250.561 23.7148 252.436 23.7148C253.92 23.7148 255.277 23.9297 256.508 24.3594C257.738 24.7891 258.793 25.4727 259.672 26.4102C260.57 27.3477 261.254 28.5879 261.723 30.1309C262.211 31.6738 262.455 33.5586 262.455 35.7852V56H253.959V35.7559C253.959 34.3496 253.764 33.2559 253.373 32.4746C252.982 31.6934 252.406 31.1465 251.645 30.834C250.902 30.502 249.984 30.3359 248.891 30.3359C247.758 30.3359 246.771 30.5605 245.932 31.0098C245.111 31.459 244.428 32.084 243.881 32.8848C243.354 33.666 242.953 34.584 242.68 35.6387C242.406 36.6934 242.27 37.8262 242.27 39.0371Z" fill="#8759F2"/>
<defs>
<linearGradient id="paint0_linear_415_79" x1="22.2661" y1="23.1456" x2="22.2661" y2="40.0275" gradientUnits="userSpaceOnUse">
<stop stop-color="#652DE9"/>
<stop offset="1" stop-color="#8759F2" stop-opacity="0"/>
</linearGradient>
<linearGradient id="paint1_linear_415_79" x1="42.7088" y1="69.8426" x2="42.7088" y2="43.1536" gradientUnits="userSpaceOnUse">
<stop stop-color="#F53376"/>
<stop offset="1" stop-color="#FF3E80"/>
</linearGradient>
<linearGradient id="paint2_linear_415_79" x1="25.8713" y1="43.2474" x2="25.8713" y2="66.8876" gradientUnits="userSpaceOnUse">
<stop stop-color="#C81B56"/>
<stop offset="1" stop-color="#FF3E80"/>
</linearGradient>
</defs>
</svg>
