<svg width="223" height="86" viewBox="0 0 223 86" fill="none" xmlns="http://www.w3.org/2000/svg">
<g filter="url(#filter0_d_203_7)">
<path d="M71 17.8962V53.7028L40 71.599L20.9308 60.5837H20.9165L9 53.7028V17.8962L40 0L71 17.8962Z" fill="url(#paint0_linear_203_7)"/>
<g style="mix-blend-mode:screen" opacity="0.4">
<g style="mix-blend-mode:screen" opacity="0.4">
<path d="M66.7083 20.371L13.2916 51.2137V20.371L40 4.94965L66.7083 20.371Z" fill="white"/>
</g>
</g>
<g style="mix-blend-mode:multiply" opacity="0.3">
<g style="mix-blend-mode:multiply" opacity="0.3">
<path d="M70.9998 25.9915V53.6941L39.9998 71.5903L20.9305 60.575C24.3066 62.0628 27.5826 63.7065 30.8872 65.3388L35.794 67.8422L39.9425 70.0167C42.26 68.5575 44.6061 67.1556 46.9522 65.725C49.4843 64.1657 52.0879 62.6908 54.6486 61.1759C57.2093 59.6609 59.8129 58.186 62.4165 56.7125C64.7483 55.3664 67.123 54.0646 69.4977 52.7785C69.5406 50.7758 69.5978 48.7573 69.6837 46.7559C69.7552 44.4513 69.8553 42.1481 69.9841 39.8321C70.2187 35.22 70.5334 30.5993 70.9998 25.9915Z" fill="black"/>
</g>
</g>
<g style="mix-blend-mode:multiply" opacity="0.3">
<g style="mix-blend-mode:multiply" opacity="0.3">
<path d="M40.0055 0C37.6308 1.84398 35.1702 3.54776 32.6954 5.24868C30.2205 6.94961 27.7172 8.56899 25.2138 10.1712C23.9549 10.9866 22.6672 11.7448 21.4084 12.5316C20.1495 13.3184 18.8763 14.1195 17.5745 14.8634C15.2856 16.2067 12.9967 17.5814 10.6792 18.8832C10.6506 21.0291 10.6365 23.1749 10.5506 25.3207C10.4934 27.7798 10.3931 30.2561 10.2644 32.731C10.2072 33.9612 10.1356 35.2058 10.0355 36.4347C9.93535 37.6635 9.89243 38.9109 9.77799 40.1541C9.56341 42.6132 9.33452 45.0895 9.00549 47.5643V17.8962L40.0055 0Z" fill="black"/>
</g>
</g>
</g>
<path d="M104.77 28.7244H99.4574C99.3059 27.8532 99.0265 27.0814 98.6193 26.4091C98.2121 25.7273 97.7055 25.1496 97.0994 24.6761C96.4934 24.2027 95.8021 23.8475 95.0256 23.6108C94.2585 23.3646 93.4299 23.2415 92.5398 23.2415C90.9583 23.2415 89.5568 23.6392 88.3352 24.4347C87.1136 25.2206 86.1572 26.3759 85.4659 27.9006C84.7746 29.4157 84.429 31.267 84.429 33.4545C84.429 35.6799 84.7746 37.5549 85.4659 39.0795C86.1667 40.5947 87.1231 41.7405 88.3352 42.517C89.5568 43.2841 90.9536 43.6676 92.5256 43.6676C93.3968 43.6676 94.2112 43.554 94.9688 43.3267C95.7358 43.09 96.4223 42.7443 97.0284 42.2898C97.6439 41.8352 98.16 41.2765 98.5767 40.6136C99.0028 39.9508 99.2964 39.1932 99.4574 38.3409L104.77 38.3693C104.571 39.7519 104.14 41.0492 103.477 42.2614C102.824 43.4735 101.967 44.5436 100.906 45.4716C99.8456 46.3902 98.6051 47.1098 97.1847 47.6307C95.7642 48.142 94.1875 48.3977 92.4545 48.3977C89.8977 48.3977 87.6155 47.8059 85.608 46.6222C83.6004 45.4384 82.0189 43.7292 80.8636 41.4943C79.7083 39.2595 79.1307 36.5795 79.1307 33.4545C79.1307 30.3201 79.7131 27.6402 80.8778 25.4148C82.0426 23.1799 83.6288 21.4706 85.6364 20.2869C87.6439 19.1032 89.9167 18.5114 92.4545 18.5114C94.0739 18.5114 95.5795 18.7386 96.9716 19.1932C98.3636 19.6477 99.6042 20.3153 100.693 21.196C101.782 22.0672 102.677 23.1373 103.378 24.4062C104.088 25.6657 104.552 27.1051 104.77 28.7244ZM115.647 48.4403C114.264 48.4403 113.019 48.1941 111.911 47.7017C110.813 47.1998 109.942 46.4612 109.298 45.4858C108.663 44.5104 108.346 43.3078 108.346 41.8778C108.346 40.6468 108.573 39.6288 109.028 38.8239C109.482 38.0189 110.103 37.375 110.888 36.892C111.674 36.4091 112.56 36.0445 113.545 35.7983C114.539 35.5426 115.567 35.358 116.627 35.2443C117.906 35.1117 118.942 34.9934 119.738 34.8892C120.533 34.7756 121.111 34.6051 121.471 34.3778C121.84 34.1411 122.025 33.7765 122.025 33.2841V33.1989C122.025 32.1288 121.708 31.3002 121.073 30.7131C120.439 30.1259 119.525 29.8324 118.332 29.8324C117.072 29.8324 116.073 30.107 115.335 30.6562C114.605 31.2055 114.113 31.8542 113.857 32.6023L109.056 31.9205C109.435 30.5947 110.06 29.4867 110.931 28.5966C111.802 27.697 112.868 27.0246 114.127 26.5795C115.387 26.125 116.779 25.8977 118.303 25.8977C119.354 25.8977 120.401 26.0208 121.442 26.267C122.484 26.5133 123.436 26.9205 124.298 27.4886C125.159 28.0473 125.851 28.8097 126.371 29.7756C126.902 30.7415 127.167 31.9489 127.167 33.3977V48H122.224V45.0028H122.053C121.741 45.6089 121.3 46.1771 120.732 46.7074C120.174 47.2282 119.468 47.6496 118.616 47.9716C117.773 48.2841 116.783 48.4403 115.647 48.4403ZM116.982 44.6619C118.014 44.6619 118.909 44.4583 119.667 44.0511C120.424 43.6345 121.007 43.0852 121.414 42.4034C121.831 41.7216 122.039 40.9782 122.039 40.1733V37.6023C121.878 37.7348 121.603 37.858 121.215 37.9716C120.836 38.0852 120.41 38.1847 119.937 38.2699C119.463 38.3551 118.995 38.4309 118.531 38.4972C118.067 38.5634 117.664 38.6203 117.323 38.6676C116.556 38.7718 115.87 38.9422 115.263 39.179C114.657 39.4157 114.179 39.7472 113.829 40.1733C113.478 40.59 113.303 41.1297 113.303 41.7926C113.303 42.7396 113.649 43.4545 114.34 43.9375C115.031 44.4205 115.912 44.6619 116.982 44.6619ZM132.337 48V26.1818H137.323V29.8182H137.55C137.948 28.5587 138.63 27.5881 139.596 26.9062C140.571 26.215 141.684 25.8693 142.934 25.8693C143.218 25.8693 143.535 25.8835 143.886 25.9119C144.246 25.9309 144.544 25.964 144.781 26.0114V30.7415C144.563 30.6657 144.217 30.5994 143.744 30.5426C143.28 30.4763 142.83 30.4432 142.394 30.4432C141.457 30.4432 140.614 30.6468 139.866 31.054C139.127 31.4517 138.545 32.0057 138.119 32.7159C137.692 33.4261 137.479 34.2453 137.479 35.1733V48H132.337ZM148.424 48V18.9091H153.566V29.7898H153.779C154.044 29.2595 154.418 28.696 154.901 28.0994C155.384 27.4934 156.038 26.9773 156.862 26.5511C157.685 26.1155 158.737 25.8977 160.015 25.8977C161.701 25.8977 163.22 26.3286 164.575 27.1903C165.938 28.0426 167.018 29.3068 167.813 30.983C168.618 32.6496 169.021 34.6951 169.021 37.1193C169.021 39.5152 168.628 41.5511 167.842 43.2273C167.056 44.9034 165.986 46.1818 164.631 47.0625C163.277 47.9432 161.743 48.3835 160.029 48.3835C158.779 48.3835 157.742 48.1752 156.918 47.7585C156.094 47.3419 155.432 46.84 154.93 46.2528C154.437 45.6562 154.054 45.0928 153.779 44.5625H153.481V48H148.424ZM153.467 37.0909C153.467 38.5019 153.665 39.7377 154.063 40.7983C154.47 41.8589 155.053 42.6875 155.81 43.2841C156.577 43.8712 157.505 44.1648 158.594 44.1648C159.731 44.1648 160.683 43.8617 161.45 43.2557C162.217 42.6402 162.794 41.8021 163.183 40.7415C163.58 39.6714 163.779 38.4545 163.779 37.0909C163.779 35.7367 163.585 34.5341 163.197 33.483C162.808 32.4318 162.231 31.608 161.464 31.0114C160.697 30.4148 159.74 30.1165 158.594 30.1165C157.496 30.1165 156.563 30.4053 155.796 30.983C155.029 31.5606 154.447 32.3703 154.049 33.4119C153.661 34.4536 153.467 35.6799 153.467 37.0909ZM182.909 48.4261C180.778 48.4261 178.932 47.9574 177.369 47.0199C175.807 46.0824 174.595 44.7708 173.733 43.0852C172.881 41.3996 172.455 39.4299 172.455 37.1761C172.455 34.9223 172.881 32.9479 173.733 31.2528C174.595 29.5578 175.807 28.2415 177.369 27.304C178.932 26.3665 180.778 25.8977 182.909 25.8977C185.04 25.8977 186.886 26.3665 188.449 27.304C190.011 28.2415 191.219 29.5578 192.071 31.2528C192.933 32.9479 193.364 34.9223 193.364 37.1761C193.364 39.4299 192.933 41.3996 192.071 43.0852C191.219 44.7708 190.011 46.0824 188.449 47.0199C186.886 47.9574 185.04 48.4261 182.909 48.4261ZM182.938 44.3068C184.093 44.3068 185.059 43.9896 185.835 43.3551C186.612 42.7112 187.189 41.8494 187.568 40.7699C187.956 39.6903 188.151 38.4877 188.151 37.1619C188.151 35.8267 187.956 34.6193 187.568 33.5398C187.189 32.4508 186.612 31.5843 185.835 30.9403C185.059 30.2964 184.093 29.9744 182.938 29.9744C181.754 29.9744 180.769 30.2964 179.983 30.9403C179.206 31.5843 178.624 32.4508 178.236 33.5398C177.857 34.6193 177.668 35.8267 177.668 37.1619C177.668 38.4877 177.857 39.6903 178.236 40.7699C178.624 41.8494 179.206 42.7112 179.983 43.3551C180.769 43.9896 181.754 44.3068 182.938 44.3068ZM202.87 35.2159V48H197.728V26.1818H202.643V29.8892H202.898C203.4 28.6676 204.201 27.697 205.299 26.9773C206.407 26.2576 207.775 25.8977 209.404 25.8977C210.91 25.8977 212.221 26.2197 213.339 26.8636C214.466 27.5076 215.337 28.4403 215.952 29.6619C216.577 30.8835 216.885 32.3655 216.876 34.108V48H211.734V34.9034C211.734 33.4451 211.355 32.304 210.597 31.4801C209.849 30.6562 208.812 30.2443 207.487 30.2443C206.587 30.2443 205.787 30.4432 205.086 30.8409C204.395 31.2292 203.85 31.7926 203.452 32.5312C203.064 33.2699 202.87 34.1648 202.87 35.2159Z" fill="#4F4E4E"/>
<defs>
<filter id="filter0_d_203_7" x="0" y="0" width="71" height="85.599" filterUnits="userSpaceOnUse" color-interpolation-filters="sRGB">
<feFlood flood-opacity="0" result="BackgroundImageFix"/>
<feColorMatrix in="SourceAlpha" type="matrix" values="0 0 0 0 0 0 0 0 0 0 0 0 0 0 0 0 0 0 127 0" result="hardAlpha"/>
<feOffset dx="-5" dy="10"/>
<feGaussianBlur stdDeviation="2"/>
<feComposite in2="hardAlpha" operator="out"/>
<feColorMatrix type="matrix" values="0 0 0 0 0 0 0 0 0 0 0 0 0 0 0 0 0 0 0.25 0"/>
<feBlend mode="normal" in2="BackgroundImageFix" result="effect1_dropShadow_203_7"/>
<feBlend mode="normal" in="SourceGraphic" in2="effect1_dropShadow_203_7" result="shape"/>
</filter>
<linearGradient id="paint0_linear_203_7" x1="40" y1="2.50596" x2="40" y2="70.167" gradientUnits="userSpaceOnUse">
<stop stop-color="#8759F2"/>
<stop offset="0.238" stop-color="#8759F2"/>
<stop offset="0.44" stop-color="#8759F2"/>
<stop offset="0.629" stop-color="#8759F2"/>
<stop offset="0.81" stop-color="#8759F2"/>
<stop offset="0.845" stop-color="#8759F2"/>
<stop offset="0.915" stop-color="#8759F2"/>
<stop offset="1" stop-color="#8759F2"/>
</linearGradient>
</defs>
</svg>
