<svg width="198" height="58" viewBox="0 0 198 58" fill="none" xmlns="http://www.w3.org/2000/svg">
<g filter="url(#filter0_d_203_7)">
<path d="M45 12.3913V33.1823L27 43.5736L15.9275 37.1777H15.9192L9 33.1823V12.3913L27 2L45 12.3913Z" fill="url(#paint0_linear_203_7)"/>
<g style="mix-blend-mode:screen" opacity="0.4">
<g style="mix-blend-mode:screen" opacity="0.4">
<path d="M42.5081 13.8283L11.4919 31.737V13.8283L27 4.87399L42.5081 13.8283Z" fill="white"/>
</g>
</g>
<g style="mix-blend-mode:multiply" opacity="0.3">
<g style="mix-blend-mode:multiply" opacity="0.3">
<path d="M45 17.0918V33.1772L26.9999 43.5685L15.9275 37.1726C17.8878 38.0365 19.79 38.9909 21.7088 39.9386L24.5579 41.3922L26.9667 42.6548C28.3124 41.8076 29.6746 40.9935 31.0369 40.1629C32.5071 39.2575 34.0189 38.4011 35.5057 37.5215C36.9926 36.6418 38.5043 35.7854 40.0161 34.9299C41.37 34.1482 42.7489 33.3923 44.1278 32.6456C44.1527 31.4827 44.1859 30.3107 44.2358 29.1486C44.2773 27.8104 44.3354 26.4731 44.4102 25.1283C44.5464 22.4503 44.7292 19.7673 45 17.0918Z" fill="black"/>
</g>
</g>
<g style="mix-blend-mode:multiply" opacity="0.3">
<g style="mix-blend-mode:multiply" opacity="0.3">
<path d="M27.0032 2C25.6243 3.0707 24.1956 4.05999 22.7586 5.04762C21.3216 6.03526 19.868 6.97554 18.4144 7.90586C17.6835 8.37933 16.9358 8.81957 16.2048 9.27642C15.4739 9.73327 14.7346 10.1984 13.9787 10.6304C12.6497 11.4103 11.3207 12.2086 9.97502 12.9645C9.95841 14.2104 9.95019 15.4564 9.90035 16.7024C9.86712 18.1302 9.8089 19.5681 9.73414 21.0051C9.70091 21.7194 9.65938 22.4421 9.60124 23.1556C9.54309 23.8691 9.51817 24.5934 9.45172 25.3153C9.32712 26.7431 9.19422 28.181 9.00317 29.618V12.3913L27.0032 2Z" fill="black"/>
</g>
</g>
</g>
<path d="M68.8633 37.4297C66.5065 37.4297 64.5859 37.1888 63.1016 36.707C61.6172 36.2253 60.4714 35.5482 59.6641 34.6758C58.8698 33.7904 58.3164 32.7422 58.0039 31.5312C57.7044 30.3203 57.5547 28.9792 57.5547 27.5078V18.6406C57.5547 17.1432 57.6979 15.7695 57.9844 14.5195C58.2839 13.2565 58.8307 12.1628 59.625 11.2383C60.4323 10.3138 61.5716 9.59766 63.043 9.08984C64.5273 8.58203 66.4544 8.32812 68.8242 8.32812C71.6758 8.32812 73.8633 8.67318 75.3867 9.36328C76.9102 10.0404 77.9583 11.043 78.5312 12.3711C79.1042 13.6992 79.3906 15.3333 79.3906 17.2734V17.5273L75.6602 17.8594V17.332C75.6602 15.6263 75.4388 14.3568 74.9961 13.5234C74.5664 12.6901 73.8503 12.1432 72.8477 11.8828C71.8451 11.6224 70.5039 11.4922 68.8242 11.4922C67.1706 11.4922 65.8034 11.681 64.7227 12.0586C63.6419 12.4232 62.8346 13.0742 62.3008 14.0117C61.7669 14.9362 61.5 16.2383 61.5 17.918V28.1133C61.5 29.7799 61.7734 31.056 62.3203 31.9414C62.8672 32.8268 63.6875 33.4388 64.7812 33.7773C65.888 34.1029 67.2747 34.2656 68.9414 34.2656C70.582 34.2656 71.8906 34.1549 72.8672 33.9336C73.8568 33.7122 74.5664 33.2109 74.9961 32.4297C75.4388 31.6354 75.6602 30.3984 75.6602 28.7188V28.25H79.3906V28.4453C79.3906 29.8646 79.2539 31.1341 78.9805 32.2539C78.7201 33.3607 78.2253 34.2982 77.4961 35.0664C76.7669 35.8346 75.7057 36.4206 74.3125 36.8242C72.9323 37.2279 71.1159 37.4297 68.8633 37.4297ZM91.5195 37.4297C89.9961 37.4297 88.7526 37.1693 87.7891 36.6484C86.8385 36.1146 86.1354 35.418 85.6797 34.5586C85.237 33.6862 85.0156 32.7552 85.0156 31.7656C85.0156 30.724 85.2174 29.8516 85.6211 29.1484C86.0378 28.4323 86.8125 27.7878 87.9453 27.2148C89.0911 26.6289 90.7643 26.0169 92.9648 25.3789C94.1107 25.0404 95.0286 24.7409 95.7188 24.4805C96.4089 24.2201 96.9102 23.888 97.2227 23.4844C97.5352 23.0807 97.6914 22.5013 97.6914 21.7461C97.6914 21.1862 97.6003 20.6784 97.418 20.2227C97.2487 19.7669 96.8906 19.4023 96.3438 19.1289C95.8099 18.8555 94.9896 18.7188 93.8828 18.7188C92.5026 18.7188 91.4935 18.862 90.8555 19.1484C90.2174 19.4349 89.8073 19.8125 89.625 20.2812C89.4557 20.737 89.3711 21.2448 89.3711 21.8047V22.7227H85.8359V21.7852C85.8359 19.7409 86.5195 18.25 87.8867 17.3125C89.2539 16.375 91.2917 15.9062 94 15.9062C96.7344 15.9062 98.6419 16.5443 99.7227 17.8203C100.816 19.0964 101.363 20.8021 101.363 22.9375V31.7656C101.363 32.8594 101.5 33.5625 101.773 33.875C102.06 34.1875 102.646 34.3438 103.531 34.3438L103.102 37.1562H102.359C100.979 37.1562 99.9831 36.8893 99.3711 36.3555C98.7591 35.8086 98.2969 35.0469 97.9844 34.0703C97.6849 34.5391 97.2682 35.0339 96.7344 35.5547C96.2135 36.0755 95.5299 36.5182 94.6836 36.8828C93.8503 37.2474 92.7956 37.4297 91.5195 37.4297ZM91.9688 34.6953C92.7109 34.6953 93.4857 34.5391 94.293 34.2266C95.1003 33.901 95.8164 33.4779 96.4414 32.957C97.0794 32.4232 97.4961 31.8372 97.6914 31.1992V25.75C97.4049 26.0365 96.9036 26.4141 96.1875 26.8828C95.4844 27.3385 94.4753 27.7552 93.1602 28.1328C91.5586 28.5885 90.3802 29.0573 89.625 29.5391C88.8828 30.0208 88.5117 30.724 88.5117 31.6484C88.5117 32.6901 88.7786 33.4583 89.3125 33.9531C89.8594 34.4479 90.7448 34.6953 91.9688 34.6953ZM108.961 16.2969H112.633V19.2266C112.932 18.4453 113.473 17.8203 114.254 17.3516C115.048 16.8698 115.947 16.5247 116.949 16.3164C117.952 16.1081 118.909 16.0039 119.82 16.0039L119.703 19.1484C118.531 19.1484 117.405 19.3112 116.324 19.6367C115.243 19.9492 114.358 20.3594 113.668 20.8672C112.978 21.375 112.633 21.9219 112.633 22.5078V37H108.961V16.2969ZM133.141 37.4297C131.917 37.4297 130.842 37.2148 129.918 36.7852C129.007 36.3424 128.277 35.9518 127.73 35.6133L127.262 37H124.547V7.60547H128.219V17.2734C128.883 16.8958 129.716 16.5768 130.719 16.3164C131.721 16.043 132.776 15.9062 133.883 15.9062C136.435 15.9062 138.349 16.5378 139.625 17.8008C140.901 19.0638 141.539 20.6719 141.539 22.625V30.125C141.539 31.5052 141.214 32.7487 140.562 33.8555C139.911 34.9622 138.961 35.8346 137.711 36.4727C136.461 37.1107 134.938 37.4297 133.141 37.4297ZM132.594 34.5391C134.039 34.5391 135.276 34.1875 136.305 33.4844C137.346 32.7682 137.867 31.7786 137.867 30.5156V22.3516C137.867 21.1146 137.464 20.2031 136.656 19.6172C135.862 19.0182 134.788 18.7188 133.434 18.7188C132.574 18.7188 131.663 18.8555 130.699 19.1289C129.736 19.4023 128.909 19.6953 128.219 20.0078V33.3281C128.753 33.6276 129.397 33.9076 130.152 34.168C130.908 34.4154 131.721 34.5391 132.594 34.5391ZM155.895 37.4297C153.824 37.4297 152.158 37.1497 150.895 36.5898C149.645 36.0169 148.733 35.2357 148.16 34.2461C147.6 33.2565 147.32 32.1237 147.32 30.8477V22.5078C147.32 21.2318 147.6 20.099 148.16 19.1094C148.733 18.1068 149.645 17.3255 150.895 16.7656C152.158 16.1927 153.824 15.9062 155.895 15.9062C157.952 15.9062 159.605 16.1927 160.855 16.7656C162.118 17.3255 163.036 18.1068 163.609 19.1094C164.182 20.099 164.469 21.2318 164.469 22.5078V30.8477C164.469 32.1237 164.182 33.2565 163.609 34.2461C163.036 35.2357 162.118 36.0169 160.855 36.5898C159.605 37.1497 157.952 37.4297 155.895 37.4297ZM155.895 34.6172C157.327 34.6172 158.499 34.3633 159.41 33.8555C160.335 33.3346 160.797 32.4362 160.797 31.1602V22.1953C160.797 20.9193 160.335 20.0208 159.41 19.5C158.499 18.9792 157.327 18.7188 155.895 18.7188C154.436 18.7188 153.251 18.9792 152.34 19.5C151.441 20.0208 150.992 20.9193 150.992 22.1953V31.1602C150.992 32.4362 151.441 33.3346 152.34 33.8555C153.251 34.3633 154.436 34.6172 155.895 34.6172ZM170.992 16.2969H174.664V18.3086C175.276 17.6055 176.077 17.0326 177.066 16.5898C178.056 16.1341 179.299 15.9062 180.797 15.9062C182.503 15.9062 183.87 16.1862 184.898 16.7461C185.94 17.293 186.695 18.0286 187.164 18.9531C187.633 19.8646 187.867 20.8672 187.867 21.9609V37H184.195V21.7461C184.195 20.7174 183.792 19.9557 182.984 19.4609C182.177 18.9661 181.135 18.7188 179.859 18.7188C178.062 18.7188 176.747 19.0573 175.914 19.7344C175.081 20.4115 174.664 21.2513 174.664 22.2539V37H170.992V16.2969Z" fill="#4F4E4E"/>
<defs>
<filter id="filter0_d_203_7" x="0" y="2" width="45" height="55.5736" filterUnits="userSpaceOnUse" color-interpolation-filters="sRGB">
<feFlood flood-opacity="0" result="BackgroundImageFix"/>
<feColorMatrix in="SourceAlpha" type="matrix" values="0 0 0 0 0 0 0 0 0 0 0 0 0 0 0 0 0 0 127 0" result="hardAlpha"/>
<feOffset dx="-5" dy="10"/>
<feGaussianBlur stdDeviation="2"/>
<feComposite in2="hardAlpha" operator="out"/>
<feColorMatrix type="matrix" values="0 0 0 0 0 0 0 0 0 0 0 0 0 0 0 0 0 0 0.25 0"/>
<feBlend mode="normal" in2="BackgroundImageFix" result="effect1_dropShadow_203_7"/>
<feBlend mode="normal" in="SourceGraphic" in2="effect1_dropShadow_203_7" result="shape"/>
</filter>
<linearGradient id="paint0_linear_203_7" x1="27" y1="3.45508" x2="27" y2="42.7421" gradientUnits="userSpaceOnUse">
<stop stop-color="#8759F2"/>
<stop offset="0.238" stop-color="#8759F2"/>
<stop offset="0.44" stop-color="#8759F2"/>
<stop offset="0.629" stop-color="#8759F2"/>
<stop offset="0.81" stop-color="#8759F2"/>
<stop offset="0.845" stop-color="#8759F2"/>
<stop offset="0.915" stop-color="#8759F2"/>
<stop offset="1" stop-color="#8759F2"/>
</linearGradient>
</defs>
</svg>
