<svg width="112" height="112" viewBox="0 0 112 112" fill="none" xmlns="http://www.w3.org/2000/svg">
<path d="M46.3448 7.72414H42.4828V11.5862H46.3448V7.72414Z" fill="#4C4AA1"/>
<path d="M50.2069 7.72414H46.3448V11.5862H50.2069V7.72414Z" fill="#4C4AA1"/>
<path d="M57.931 7.72414H54.069V11.5862H57.931V7.72414Z" fill="#4C4AA1"/>
<path d="M61.7931 7.72414H57.931V11.5862H61.7931V7.72414Z" fill="#4C4AA1"/>
<path d="M65.6552 7.72414H61.7931V11.5862H65.6552V7.72414Z" fill="#4C4AA1"/>
<path d="M69.5172 7.72414H65.6552V11.5862H69.5172V7.72414Z" fill="#4C4AA1"/>
<path d="M42.4828 11.5862H38.6207V15.4483H42.4828V11.5862Z" fill="#4C4AA1"/>
<path d="M46.3448 11.5862H42.4828V15.4483H46.3448V11.5862Z" fill="#4C4AA1"/>
<path d="M61.7931 11.5862H57.931V15.4483H61.7931V11.5862Z" fill="#4C4AA1"/>
<path d="M69.5172 11.5862H65.6552V15.4483H69.5172V11.5862Z" fill="#4C4AA1"/>
<path d="M50.2069 15.4483H46.3448V19.3103H50.2069V15.4483Z" fill="#4C4AA1"/>
<path d="M54.069 15.4483H50.2069V19.3103H54.069V15.4483Z" fill="#4C4AA1"/>
<path d="M57.931 15.4483H54.069V19.3103H57.931V15.4483Z" fill="#4C4AA1"/>
<path d="M69.5172 15.4483H65.6552V19.3103H69.5172V15.4483Z" fill="#4C4AA1"/>
<path d="M50.2069 19.3103H46.3448V23.1724H50.2069V19.3103Z" fill="#4C4AA1"/>
<path d="M57.931 19.3103H54.069V23.1724H57.931V19.3103Z" fill="#4C4AA1"/>
<path d="M65.6552 19.3103H61.7931V23.1724H65.6552V19.3103Z" fill="#4C4AA1"/>
<path d="M42.4828 23.1724H38.6207V27.0345H42.4828V23.1724Z" fill="#4C4AA1"/>
<path d="M46.3448 23.1724H42.4828V27.0345H46.3448V23.1724Z" fill="#4C4AA1"/>
<path d="M50.2069 23.1724H46.3448V27.0345H50.2069V23.1724Z" fill="#4C4AA1"/>
<path d="M54.069 23.1724H50.2069V27.0345H54.069V23.1724Z" fill="#4C4AA1"/>
<path d="M61.7931 23.1724H57.931V27.0345H61.7931V23.1724Z" fill="#4C4AA1"/>
<path d="M65.6552 23.1724H61.7931V27.0345H65.6552V23.1724Z" fill="#4C4AA1"/>
<path d="M69.5172 23.1724H65.6552V27.0345H69.5172V23.1724Z" fill="#4C4AA1"/>
<path d="M73.3793 23.1724H69.5172V27.0345H73.3793V23.1724Z" fill="#4C4AA1"/>
<path d="M46.3448 27.0345H42.4828V30.8966H46.3448V27.0345Z" fill="#4C4AA1"/>
<path d="M50.2069 27.0345H46.3448V30.8966H50.2069V27.0345Z" fill="#4C4AA1"/>
<path d="M54.069 27.0345H50.2069V30.8966H54.069V27.0345Z" fill="#4C4AA1"/>
<path d="M65.6552 27.0345H61.7931V30.8966H65.6552V27.0345Z" fill="#4C4AA1"/>
<path d="M69.5172 27.0345H65.6552V30.8966H69.5172V27.0345Z" fill="#4C4AA1"/>
<path d="M73.3793 27.0345H69.5172V30.8966H73.3793V27.0345Z" fill="#4C4AA1"/>
<path d="M42.4828 30.8965H38.6207V34.7586H42.4828V30.8965Z" fill="#4C4AA1"/>
<path d="M50.2069 30.8965H46.3448V34.7586H50.2069V30.8965Z" fill="#4C4AA1"/>
<path d="M57.931 30.8965H54.069V34.7586H57.931V30.8965Z" fill="#4C4AA1"/>
<path d="M65.6552 30.8965H61.7931V34.7586H65.6552V30.8965Z" fill="#4C4AA1"/>
<path d="M73.3793 30.8965H69.5172V34.7586H73.3793V30.8965Z" fill="#4C4AA1"/>
<path d="M46.3448 34.7586H42.4828V38.6207H46.3448V34.7586Z" fill="#4C4AA1"/>
<path d="M54.069 34.7586H50.2069V38.6207H54.069V34.7586Z" fill="#4C4AA1"/>
<path d="M57.931 34.7586H54.069V38.6207H57.931V34.7586Z" fill="#4C4AA1"/>
<path d="M61.7931 34.7586H57.931V38.6207H61.7931V34.7586Z" fill="#4C4AA1"/>
<path d="M65.6552 34.7586H61.7931V38.6207H65.6552V34.7586Z" fill="#4C4AA1"/>
<path d="M11.5862 38.6207H7.72414V42.4828H11.5862V38.6207Z" fill="#4C4AA1"/>
<path d="M19.3103 38.6207H15.4483V42.4828H19.3103V38.6207Z" fill="#4C4AA1"/>
<path d="M27.0345 38.6207H23.1724V42.4828H27.0345V38.6207Z" fill="#4C4AA1"/>
<path d="M34.7586 38.6207H30.8966V42.4828H34.7586V38.6207Z" fill="#4C4AA1"/>
<path d="M46.3448 38.6207H42.4828V42.4828H46.3448V38.6207Z" fill="#4C4AA1"/>
<path d="M54.069 38.6207H50.2069V42.4828H54.069V38.6207Z" fill="#4C4AA1"/>
<path d="M57.931 38.6207H54.069V42.4828H57.931V38.6207Z" fill="#4C4AA1"/>
<path d="M65.6552 38.6207H61.7931V42.4828H65.6552V38.6207Z" fill="#4C4AA1"/>
<path d="M69.5172 38.6207H65.6552V42.4828H69.5172V38.6207Z" fill="#4C4AA1"/>
<path d="M73.3793 38.6207H69.5172V42.4828H73.3793V38.6207Z" fill="#4C4AA1"/>
<path d="M88.8276 38.6207H84.9655V42.4828H88.8276V38.6207Z" fill="#4C4AA1"/>
<path d="M100.414 38.6207H96.5517V42.4828H100.414V38.6207Z" fill="#4C4AA1"/>
<path d="M11.5862 42.4828H7.72414V46.3448H11.5862V42.4828Z" fill="#4C4AA1"/>
<path d="M15.4483 42.4828H11.5862V46.3448H15.4483V42.4828Z" fill="#4C4AA1"/>
<path d="M19.3103 42.4828H15.4483V46.3448H19.3103V42.4828Z" fill="#4C4AA1"/>
<path d="M42.4828 42.4828H38.6207V46.3448H42.4828V42.4828Z" fill="#4C4AA1"/>
<path d="M46.3448 42.4828H42.4828V46.3448H46.3448V42.4828Z" fill="#4C4AA1"/>
<path d="M57.931 42.4828H54.069V46.3448H57.931V42.4828Z" fill="#4C4AA1"/>
<path d="M73.3793 42.4828H69.5172V46.3448H73.3793V42.4828Z" fill="#4C4AA1"/>
<path d="M77.2414 42.4828H73.3793V46.3448H77.2414V42.4828Z" fill="#4C4AA1"/>
<path d="M81.1035 42.4828H77.2414V46.3448H81.1035V42.4828Z" fill="#4C4AA1"/>
<path d="M104.276 42.4828H100.414V46.3448H104.276V42.4828Z" fill="#4C4AA1"/>
<path d="M11.5862 46.3448H7.72414V50.2069H11.5862V46.3448Z" fill="#4C4AA1"/>
<path d="M15.4483 46.3448H11.5862V50.2069H15.4483V46.3448Z" fill="#4C4AA1"/>
<path d="M34.7586 46.3448H30.8966V50.2069H34.7586V46.3448Z" fill="#4C4AA1"/>
<path d="M38.6207 46.3448H34.7586V50.2069H38.6207V46.3448Z" fill="#4C4AA1"/>
<path d="M54.069 46.3448H50.2069V50.2069H54.069V46.3448Z" fill="#4C4AA1"/>
<path d="M61.7931 46.3448H57.931V50.2069H61.7931V46.3448Z" fill="#4C4AA1"/>
<path d="M77.2414 46.3448H73.3793V50.2069H77.2414V46.3448Z" fill="#4C4AA1"/>
<path d="M81.1035 46.3448H77.2414V50.2069H81.1035V46.3448Z" fill="#4C4AA1"/>
<path d="M84.9655 46.3448H81.1034V50.2069H84.9655V46.3448Z" fill="#4C4AA1"/>
<path d="M88.8276 46.3448H84.9655V50.2069H88.8276V46.3448Z" fill="#4C4AA1"/>
<path d="M96.5517 46.3448H92.6897V50.2069H96.5517V46.3448Z" fill="#4C4AA1"/>
<path d="M100.414 46.3448H96.5517V50.2069H100.414V46.3448Z" fill="#4C4AA1"/>
<path d="M104.276 46.3448H100.414V50.2069H104.276V46.3448Z" fill="#4C4AA1"/>
<path d="M11.5862 50.2069H7.72414V54.069H11.5862V50.2069Z" fill="#4C4AA1"/>
<path d="M19.3103 50.2069H15.4483V54.069H19.3103V50.2069Z" fill="#4C4AA1"/>
<path d="M23.1724 50.2069H19.3103V54.069H23.1724V50.2069Z" fill="#4C4AA1"/>
<path d="M27.0345 50.2069H23.1724V54.069H27.0345V50.2069Z" fill="#4C4AA1"/>
<path d="M38.6207 50.2069H34.7586V54.069H38.6207V50.2069Z" fill="#4C4AA1"/>
<path d="M50.2069 50.2069H46.3448V54.069H50.2069V50.2069Z" fill="#4C4AA1"/>
<path d="M54.069 50.2069H50.2069V54.069H54.069V50.2069Z" fill="#4C4AA1"/>
<path d="M57.931 50.2069H54.069V54.069H57.931V50.2069Z" fill="#4C4AA1"/>
<path d="M88.8276 50.2069H84.9655V54.069H88.8276V50.2069Z" fill="#4C4AA1"/>
<path d="M100.414 50.2069H96.5517V54.069H100.414V50.2069Z" fill="#4C4AA1"/>
<path d="M11.5862 54.069H7.72414V57.931H11.5862V54.069Z" fill="#4C4AA1"/>
<path d="M19.3103 54.069H15.4483V57.931H19.3103V54.069Z" fill="#4C4AA1"/>
<path d="M27.0345 54.069H23.1724V57.931H27.0345V54.069Z" fill="#4C4AA1"/>
<path d="M34.7586 54.069H30.8966V57.931H34.7586V54.069Z" fill="#4C4AA1"/>
<path d="M38.6207 54.069H34.7586V57.931H38.6207V54.069Z" fill="#4C4AA1"/>
<path d="M42.4828 54.069H38.6207V57.931H42.4828V54.069Z" fill="#4C4AA1"/>
<path d="M46.3448 54.069H42.4828V57.931H46.3448V54.069Z" fill="#4C4AA1"/>
<path d="M50.2069 54.069H46.3448V57.931H50.2069V54.069Z" fill="#4C4AA1"/>
<path d="M57.931 54.069H54.069V57.931H57.931V54.069Z" fill="#4C4AA1"/>
<path d="M77.2414 54.069H73.3793V57.931H77.2414V54.069Z" fill="#4C4AA1"/>
<path d="M81.1035 54.069H77.2414V57.931H81.1035V54.069Z" fill="#4C4AA1"/>
<path d="M92.6897 54.069H88.8276V57.931H92.6897V54.069Z" fill="#4C4AA1"/>
<path d="M100.414 54.069H96.5517V57.931H100.414V54.069Z" fill="#4C4AA1"/>
<path d="M104.276 54.069H100.414V57.931H104.276V54.069Z" fill="#4C4AA1"/>
<path d="M27.0345 57.931H23.1724V61.7931H27.0345V57.931Z" fill="#4C4AA1"/>
<path d="M30.8966 57.931H27.0345V61.7931H30.8966V57.931Z" fill="#4C4AA1"/>
<path d="M42.4828 57.931H38.6207V61.7931H42.4828V57.931Z" fill="#4C4AA1"/>
<path d="M46.3448 57.931H42.4828V61.7931H46.3448V57.931Z" fill="#4C4AA1"/>
<path d="M50.2069 57.931H46.3448V61.7931H50.2069V57.931Z" fill="#4C4AA1"/>
<path d="M54.069 57.931H50.2069V61.7931H54.069V57.931Z" fill="#4C4AA1"/>
<path d="M57.931 57.931H54.069V61.7931H57.931V57.931Z" fill="#4C4AA1"/>
<path d="M61.7931 57.931H57.931V61.7931H61.7931V57.931Z" fill="#4C4AA1"/>
<path d="M73.3793 57.931H69.5172V61.7931H73.3793V57.931Z" fill="#4C4AA1"/>
<path d="M81.1035 57.931H77.2414V61.7931H81.1035V57.931Z" fill="#4C4AA1"/>
<path d="M92.6897 57.931H88.8276V61.7931H92.6897V57.931Z" fill="#4C4AA1"/>
<path d="M104.276 57.931H100.414V61.7931H104.276V57.931Z" fill="#4C4AA1"/>
<path d="M11.5862 61.7931H7.72414V65.6552H11.5862V61.7931Z" fill="#4C4AA1"/>
<path d="M23.1724 61.7931H19.3103V65.6552H23.1724V61.7931Z" fill="#4C4AA1"/>
<path d="M27.0345 61.7931H23.1724V65.6552H27.0345V61.7931Z" fill="#4C4AA1"/>
<path d="M34.7586 61.7931H30.8966V65.6552H34.7586V61.7931Z" fill="#4C4AA1"/>
<path d="M38.6207 61.7931H34.7586V65.6552H38.6207V61.7931Z" fill="#4C4AA1"/>
<path d="M42.4828 61.7931H38.6207V65.6552H42.4828V61.7931Z" fill="#4C4AA1"/>
<path d="M54.069 61.7931H50.2069V65.6552H54.069V61.7931Z" fill="#4C4AA1"/>
<path d="M57.931 61.7931H54.069V65.6552H57.931V61.7931Z" fill="#4C4AA1"/>
<path d="M65.6552 61.7931H61.7931V65.6552H65.6552V61.7931Z" fill="#4C4AA1"/>
<path d="M77.2414 61.7931H73.3793V65.6552H77.2414V61.7931Z" fill="#4C4AA1"/>
<path d="M81.1035 61.7931H77.2414V65.6552H81.1035V61.7931Z" fill="#4C4AA1"/>
<path d="M84.9655 61.7931H81.1034V65.6552H84.9655V61.7931Z" fill="#4C4AA1"/>
<path d="M96.5517 61.7931H92.6897V65.6552H96.5517V61.7931Z" fill="#4C4AA1"/>
<path d="M100.414 61.7931H96.5517V65.6552H100.414V61.7931Z" fill="#4C4AA1"/>
<path d="M104.276 61.7931H100.414V65.6552H104.276V61.7931Z" fill="#4C4AA1"/>
<path d="M15.4483 65.6552H11.5862V69.5172H15.4483V65.6552Z" fill="#4C4AA1"/>
<path d="M23.1724 65.6552H19.3103V69.5172H23.1724V65.6552Z" fill="#4C4AA1"/>
<path d="M27.0345 65.6552H23.1724V69.5172H27.0345V65.6552Z" fill="#4C4AA1"/>
<path d="M46.3448 65.6552H42.4828V69.5172H46.3448V65.6552Z" fill="#4C4AA1"/>
<path d="M50.2069 65.6552H46.3448V69.5172H50.2069V65.6552Z" fill="#4C4AA1"/>
<path d="M57.931 65.6552H54.069V69.5172H57.931V65.6552Z" fill="#4C4AA1"/>
<path d="M61.7931 65.6552H57.931V69.5172H61.7931V65.6552Z" fill="#4C4AA1"/>
<path d="M65.6552 65.6552H61.7931V69.5172H65.6552V65.6552Z" fill="#4C4AA1"/>
<path d="M69.5172 65.6552H65.6552V69.5172H69.5172V65.6552Z" fill="#4C4AA1"/>
<path d="M77.2414 65.6552H73.3793V69.5172H77.2414V65.6552Z" fill="#4C4AA1"/>
<path d="M88.8276 65.6552H84.9655V69.5172H88.8276V65.6552Z" fill="#4C4AA1"/>
<path d="M100.414 65.6552H96.5517V69.5172H100.414V65.6552Z" fill="#4C4AA1"/>
<path d="M11.5862 69.5172H7.72414V73.3793H11.5862V69.5172Z" fill="#4C4AA1"/>
<path d="M30.8966 69.5172H27.0345V73.3793H30.8966V69.5172Z" fill="#4C4AA1"/>
<path d="M34.7586 69.5172H30.8966V73.3793H34.7586V69.5172Z" fill="#4C4AA1"/>
<path d="M42.4828 69.5172H38.6207V73.3793H42.4828V69.5172Z" fill="#4C4AA1"/>
<path d="M50.2069 69.5172H46.3448V73.3793H50.2069V69.5172Z" fill="#4C4AA1"/>
<path d="M54.069 69.5172H50.2069V73.3793H54.069V69.5172Z" fill="#4C4AA1"/>
<path d="M65.6552 69.5172H61.7931V73.3793H65.6552V69.5172Z" fill="#4C4AA1"/>
<path d="M73.3793 69.5172H69.5172V73.3793H73.3793V69.5172Z" fill="#4C4AA1"/>
<path d="M77.2414 69.5172H73.3793V73.3793H77.2414V69.5172Z" fill="#4C4AA1"/>
<path d="M81.1035 69.5172H77.2414V73.3793H81.1035V69.5172Z" fill="#4C4AA1"/>
<path d="M84.9655 69.5172H81.1034V73.3793H84.9655V69.5172Z" fill="#4C4AA1"/>
<path d="M88.8276 69.5172H84.9655V73.3793H88.8276V69.5172Z" fill="#4C4AA1"/>
<path d="M92.6897 69.5172H88.8276V73.3793H92.6897V69.5172Z" fill="#4C4AA1"/>
<path d="M42.4828 73.3793H38.6207V77.2414H42.4828V73.3793Z" fill="#4C4AA1"/>
<path d="M50.2069 73.3793H46.3448V77.2414H50.2069V73.3793Z" fill="#4C4AA1"/>
<path d="M54.069 73.3793H50.2069V77.2414H54.069V73.3793Z" fill="#4C4AA1"/>
<path d="M65.6552 73.3793H61.7931V77.2414H65.6552V73.3793Z" fill="#4C4AA1"/>
<path d="M69.5172 73.3793H65.6552V77.2414H69.5172V73.3793Z" fill="#4C4AA1"/>
<path d="M73.3793 73.3793H69.5172V77.2414H73.3793V73.3793Z" fill="#4C4AA1"/>
<path d="M88.8276 73.3793H84.9655V77.2414H88.8276V73.3793Z" fill="#4C4AA1"/>
<path d="M92.6897 73.3793H88.8276V77.2414H92.6897V73.3793Z" fill="#4C4AA1"/>
<path d="M100.414 73.3793H96.5517V77.2414H100.414V73.3793Z" fill="#4C4AA1"/>
<path d="M104.276 73.3793H100.414V77.2414H104.276V73.3793Z" fill="#4C4AA1"/>
<path d="M46.3448 77.2414H42.4828V81.1034H46.3448V77.2414Z" fill="#4C4AA1"/>
<path d="M50.2069 77.2414H46.3448V81.1034H50.2069V77.2414Z" fill="#4C4AA1"/>
<path d="M61.7931 77.2414H57.931V81.1034H61.7931V77.2414Z" fill="#4C4AA1"/>
<path d="M69.5172 77.2414H65.6552V81.1034H69.5172V77.2414Z" fill="#4C4AA1"/>
<path d="M73.3793 77.2414H69.5172V81.1034H73.3793V77.2414Z" fill="#4C4AA1"/>
<path d="M81.1035 77.2414H77.2414V81.1034H81.1035V77.2414Z" fill="#4C4AA1"/>
<path d="M88.8276 77.2414H84.9655V81.1034H88.8276V77.2414Z" fill="#4C4AA1"/>
<path d="M92.6897 77.2414H88.8276V81.1034H92.6897V77.2414Z" fill="#4C4AA1"/>
<path d="M100.414 77.2414H96.5517V81.1034H100.414V77.2414Z" fill="#4C4AA1"/>
<path d="M104.276 77.2414H100.414V81.1034H104.276V77.2414Z" fill="#4C4AA1"/>
<path d="M46.3448 81.1034H42.4828V84.9655H46.3448V81.1034Z" fill="#4C4AA1"/>
<path d="M50.2069 81.1034H46.3448V84.9655H50.2069V81.1034Z" fill="#4C4AA1"/>
<path d="M54.069 81.1034H50.2069V84.9655H54.069V81.1034Z" fill="#4C4AA1"/>
<path d="M73.3793 81.1034H69.5172V84.9655H73.3793V81.1034Z" fill="#4C4AA1"/>
<path d="M88.8276 81.1034H84.9655V84.9655H88.8276V81.1034Z" fill="#4C4AA1"/>
<path d="M92.6897 81.1034H88.8276V84.9655H92.6897V81.1034Z" fill="#4C4AA1"/>
<path d="M104.276 81.1034H100.414V84.9655H104.276V81.1034Z" fill="#4C4AA1"/>
<path d="M42.4828 84.9655H38.6207V88.8276H42.4828V84.9655Z" fill="#4C4AA1"/>
<path d="M46.3448 84.9655H42.4828V88.8276H46.3448V84.9655Z" fill="#4C4AA1"/>
<path d="M57.931 84.9655H54.069V88.8276H57.931V84.9655Z" fill="#4C4AA1"/>
<path d="M73.3793 84.9655H69.5172V88.8276H73.3793V84.9655Z" fill="#4C4AA1"/>
<path d="M77.2414 84.9655H73.3793V88.8276H77.2414V84.9655Z" fill="#4C4AA1"/>
<path d="M81.1035 84.9655H77.2414V88.8276H81.1035V84.9655Z" fill="#4C4AA1"/>
<path d="M84.9655 84.9655H81.1034V88.8276H84.9655V84.9655Z" fill="#4C4AA1"/>
<path d="M88.8276 84.9655H84.9655V88.8276H88.8276V84.9655Z" fill="#4C4AA1"/>
<path d="M92.6897 84.9655H88.8276V88.8276H92.6897V84.9655Z" fill="#4C4AA1"/>
<path d="M104.276 84.9655H100.414V88.8276H104.276V84.9655Z" fill="#4C4AA1"/>
<path d="M54.069 88.8276H50.2069V92.6897H54.069V88.8276Z" fill="#4C4AA1"/>
<path d="M57.931 88.8276H54.069V92.6897H57.931V88.8276Z" fill="#4C4AA1"/>
<path d="M61.7931 88.8276H57.931V92.6897H61.7931V88.8276Z" fill="#4C4AA1"/>
<path d="M84.9655 88.8276H81.1034V92.6897H84.9655V88.8276Z" fill="#4C4AA1"/>
<path d="M88.8276 88.8276H84.9655V92.6897H88.8276V88.8276Z" fill="#4C4AA1"/>
<path d="M92.6897 88.8276H88.8276V92.6897H92.6897V88.8276Z" fill="#4C4AA1"/>
<path d="M96.5517 88.8276H92.6897V92.6897H96.5517V88.8276Z" fill="#4C4AA1"/>
<path d="M42.4828 92.6897H38.6207V96.5517H42.4828V92.6897Z" fill="#4C4AA1"/>
<path d="M54.069 92.6897H50.2069V96.5517H54.069V92.6897Z" fill="#4C4AA1"/>
<path d="M57.931 92.6897H54.069V96.5517H57.931V92.6897Z" fill="#4C4AA1"/>
<path d="M65.6552 92.6897H61.7931V96.5517H65.6552V92.6897Z" fill="#4C4AA1"/>
<path d="M69.5172 92.6897H65.6552V96.5517H69.5172V92.6897Z" fill="#4C4AA1"/>
<path d="M88.8276 92.6897H84.9655V96.5517H88.8276V92.6897Z" fill="#4C4AA1"/>
<path d="M104.276 92.6897H100.414V96.5517H104.276V92.6897Z" fill="#4C4AA1"/>
<path d="M46.3448 96.5517H42.4828V100.414H46.3448V96.5517Z" fill="#4C4AA1"/>
<path d="M50.2069 96.5517H46.3448V100.414H50.2069V96.5517Z" fill="#4C4AA1"/>
<path d="M57.931 96.5517H54.069V100.414H57.931V96.5517Z" fill="#4C4AA1"/>
<path d="M61.7931 96.5517H57.931V100.414H61.7931V96.5517Z" fill="#4C4AA1"/>
<path d="M65.6552 96.5517H61.7931V100.414H65.6552V96.5517Z" fill="#4C4AA1"/>
<path d="M69.5172 96.5517H65.6552V100.414H69.5172V96.5517Z" fill="#4C4AA1"/>
<path d="M73.3793 96.5517H69.5172V100.414H73.3793V96.5517Z" fill="#4C4AA1"/>
<path d="M77.2414 96.5517H73.3793V100.414H77.2414V96.5517Z" fill="#4C4AA1"/>
<path d="M88.8276 96.5517H84.9655V100.414H88.8276V96.5517Z" fill="#4C4AA1"/>
<path d="M92.6897 96.5517H88.8276V100.414H92.6897V96.5517Z" fill="#4C4AA1"/>
<path d="M100.414 96.5517H96.5517V100.414H100.414V96.5517Z" fill="#4C4AA1"/>
<path d="M42.4828 100.414H38.6207V104.276H42.4828V100.414Z" fill="#4C4AA1"/>
<path d="M46.3448 100.414H42.4828V104.276H46.3448V100.414Z" fill="#4C4AA1"/>
<path d="M54.069 100.414H50.2069V104.276H54.069V100.414Z" fill="#4C4AA1"/>
<path d="M65.6552 100.414H61.7931V104.276H65.6552V100.414Z" fill="#4C4AA1"/>
<path d="M69.5172 100.414H65.6552V104.276H69.5172V100.414Z" fill="#4C4AA1"/>
<path d="M73.3793 100.414H69.5172V104.276H73.3793V100.414Z" fill="#4C4AA1"/>
<path d="M77.2414 100.414H73.3793V104.276H77.2414V100.414Z" fill="#4C4AA1"/>
<path d="M81.1035 100.414H77.2414V104.276H81.1035V100.414Z" fill="#4C4AA1"/>
<path d="M84.9655 100.414H81.1034V104.276H84.9655V100.414Z" fill="#4C4AA1"/>
<path d="M100.414 100.414H96.5517V104.276H100.414V100.414Z" fill="#4C4AA1"/>
<path d="M104.276 100.414H100.414V104.276H104.276V100.414Z" fill="#4C4AA1"/>
<path d="M30.7034 7.72414H11.7793H7.72414V11.7793V30.7034V34.7586H11.7793H30.7034H34.7586V30.7034V11.7793V7.72414H30.7034ZM30.7034 30.7034H11.7793V11.7793H30.7034V30.7034Z" fill="#4C4AA1"/>
<path d="M100.221 7.72414H81.2966H77.2414V11.7793V30.7034V34.7586H81.2966H100.221H104.276V30.7034V11.7793V7.72414H100.221ZM100.221 30.7034H81.2966V11.7793H100.221V30.7034Z" fill="#4C4AA1"/>
<path d="M30.7034 77.2414H11.7793H7.72414V81.2966V100.221V104.276H11.7793H30.7034H34.7586V100.221V81.2966V77.2414H30.7034ZM30.7034 100.221H11.7793V81.2966H30.7034V100.221Z" fill="#4C4AA1"/>
<path d="M27.0345 15.4483H15.4483V27.0345H27.0345V15.4483Z" fill="#4C4AA1"/>
<path d="M96.5517 15.4483H84.9655V27.0345H96.5517V15.4483Z" fill="#4C4AA1"/>
<path d="M27.0345 84.9655H15.4483V96.5517H27.0345V84.9655Z" fill="#4C4AA1"/>
</svg>
